# xmcd CD database file
#
# Track frame offsets:
#	150
#	35892
#	68347
#	91502
#	120115
#	147890
#	179317
#	202950
#	224892
#	250392
#	284550
#
# Disc length: 4203 seconds
#
# Revision: 6
# Processed by: cddbd v1.4PL0 Copyright (c) Steve Scherf et al.
# Submitted via: CD2WAV32(EN) R3.19
#
DISCID=a010690b
DTITLE=NAKAJIMA Miyuki - Uta de sika ienai
DYEAR=1900
DGENRE=
TTITLE0=C.Q.
TTITLE1=Odayaka na Jidai
TTITLE2=Tokyo Maigo
TTITLE3=Maybe
TTITLE4=Nagisa e
TTITLE5=Eikyuu-Ketuban
TTITLE6=Waratte yo Angel
TTITLE7=Tawawa
TTITLE8=Sapporo Snowy
TTITLE9=Minami Sanjou
TTITLE10=Honoo to Mizu
EXTD=
EXTT0=
EXTT1=
EXTT2=
EXTT3=
EXTT4=
EXTT5=
EXTT6=
EXTT7=
EXTT8=
EXTT9=
EXTT10=
PLAYORDER=
